<svg width="226" height="24" viewBox="0 0 226 24" fill="none" xmlns="http://www.w3.org/2000/svg">
<path d="M147.299 18.5H145.135V8.97656H143.01V7.07812H149.409V8.97656H147.299V18.5ZM154.202 18.5V7.07812H156.397V18.5H154.202ZM166.23 18.5L163.972 10.0703H163.91C163.936 10.4193 163.956 10.7474 163.972 11.0547C163.988 11.362 163.998 11.6458 164.003 11.9062C164.014 12.1667 164.019 12.401 164.019 12.6094V18.5H161.972V7.07812H164.995L167.105 14.8984H167.16L169.269 7.07812H172.277V18.5H170.183V12.5938C170.183 12.3594 170.186 12.1146 170.191 11.8594C170.201 11.599 170.212 11.3229 170.222 11.0312C170.238 10.7344 170.256 10.4193 170.277 10.0859H170.214L167.941 18.5H166.23ZM182.984 18.5H177.851V7.07812H182.984V8.94531H180.047V11.6328H182.781V13.5078H180.047V16.5938H182.984V18.5ZM188.2 18.5V7.07812H190.395V16.5938H193.434V18.5H188.2ZM198.22 18.5V7.07812H200.415V18.5H198.22ZM213.896 18.5H211.318L207.974 10.5312H207.911C207.943 10.901 207.966 11.25 207.982 11.5781C208.003 11.901 208.016 12.1979 208.021 12.4688C208.031 12.7396 208.036 12.9844 208.036 13.2031V18.5H205.99V7.07812H208.552L211.88 14.8672H211.943C211.922 14.5078 211.904 14.1745 211.888 13.8672C211.872 13.5547 211.859 13.2656 211.849 13C211.838 12.7344 211.833 12.4922 211.833 12.2734V7.07812H213.896V18.5ZM224.595 18.5H219.463V7.07812H224.595V8.94531H221.658V11.6328H224.392V13.5078H221.658V16.5938H224.595V18.5Z" fill="#191919"/>
<path d="M13.1255 0C20.1255 0.6 27.7255 4.1 32.1255 9.1C37.7255 15.5 35.8255 21.9 27.8255 23.4C19.8255 24.9 8.82546 20.9 3.22546 14.5C-1.07454 9.6 -0.974543 4.7 2.92546 2L25.1255 18.4L13.1255 0Z" fill="#E70641"/>
<path d="M122.725 23.5L119.925 12.3C119.525 11 119.325 9.59995 119.125 8.29995H119.025C118.825 9.69995 118.725 11 118.325 12.4L115.525 23.5H110.725L117.225 0.199951H121.025L127.725 23.5H122.725Z" fill="#231F20"/>
<path d="M49.0255 0.0999756L51.8255 11.3C52.2255 12.6 52.4255 14 52.6255 15.3H52.7255C52.9255 13.9 53.0255 12.6 53.4255 11.2L56.2255 0.0999756H61.0255L54.6255 23.5H50.8255L44.1255 0.0999756H49.0255Z" fill="#231F20"/>
<path d="M69.1255 0.0999756V23.5H64.5255V0.0999756H69.1255Z" fill="#231F20"/>
<path d="M95.2255 0.0999756L97.5255 13.9L99.4255 0.0999756H105.626L108.026 23.4H103.326L102.226 6.59998H102.126L101.426 12.4L99.4255 23.4H95.8255L93.5255 12.2L92.7255 6.99998V6.59998H92.6255L92.0255 23.5H87.0255L89.0255 0.199976H95.2255V0.0999756Z" fill="#231F20"/>
<path d="M80.6255 0.0999756C79.8255 0.699976 79.2255 1.59998 78.8255 2.59998C77.6255 5.49998 78.9255 7.69998 80.0255 9.69998C80.2255 9.99998 80.3255 10.3 80.5255 10.6C83.0255 14.9 84.0255 18 82.1255 22.5C82.0255 22.8 81.7255 23.4 81.7255 23.4H76.1255C76.7255 22.9 77.4255 22.1 77.8255 21.2C79.1255 18.1 77.6255 15.3 76.1255 12.6C74.4255 9.29998 72.5255 5.99998 74.5255 1.29998C74.7255 0.899976 75.1255 0.0999756 75.1255 0.0999756H80.6255V0.0999756Z" fill="#231F20"/>
</svg>
